<svg id="Layer_1" data-name="Layer 1" xmlns="http://www.w3.org/2000/svg" viewBox="0 0 38.87 51.63"><defs><style>.cls-1{fill:#fffeff;}</style></defs><title>bills</title><path class="cls-1" d="M89.75,52l-7.17,7.17V52h7.17m2.41-1H81.58V61.56L92.17,51Z" transform="translate(-53.33 -9.94)"/><path class="cls-1" d="M81.92,61.56H53.33V9.94H92.21V51.27Zm-27.58-1H81.5l9.71-9.71V10.94H54.33Z" transform="translate(-53.33 -9.94)"/><path class="cls-1" d="M62.37,23.56a2.5,2.5,0,0,1-2.55-2,.5.5,0,1,1,1-.23,1.52,1.52,0,0,0,1.69,1.26c1.26-.07,1.8-.58,1.76-1.66s-.76-1.25-1.95-1.61-2.51-.78-2.54-2.42a2.24,2.24,0,0,1,.66-1.62,3,3,0,0,1,2.2-.84h0A2.41,2.41,0,0,1,65,16a.5.5,0,0,1-1,.3,1.43,1.43,0,0,0-1.47-.86h0a2,2,0,0,0-1.48.54,1.25,1.25,0,0,0-.37.9c0,.88.68,1.12,1.84,1.49s2.58.8,2.65,2.53c0,1-.27,2.56-2.7,2.7Z" transform="translate(-53.33 -9.94)"/><path class="cls-1" d="M61.86,24.36a.38.38,0,0,1-.37-.37V14a.38.38,0,1,1,.75,0V24A.38.38,0,0,1,61.86,24.36Z" transform="translate(-53.33 -9.94)"/><path class="cls-1" d="M63.31,24.36a.38.38,0,0,1-.37-.37V14a.38.38,0,1,1,.75,0V24A.38.38,0,0,1,63.31,24.36Z" transform="translate(-53.33 -9.94)"/><path class="cls-1" d="M69.37,23.56a2.5,2.5,0,0,1-2.55-2,.5.5,0,0,1,1-.23,1.52,1.52,0,0,0,1.69,1.26c1.26-.07,1.8-.58,1.76-1.66s-.76-1.25-1.95-1.61-2.51-.78-2.54-2.42a2.24,2.24,0,0,1,.66-1.62,3.11,3.11,0,0,1,2.2-.84A2.41,2.41,0,0,1,72,16a.5.5,0,0,1-1,.3,1.43,1.43,0,0,0-1.47-.86h0a2,2,0,0,0-1.48.54,1.25,1.25,0,0,0-.37.9c0,.88.68,1.12,1.84,1.49s2.58.8,2.65,2.53c0,1-.27,2.56-2.7,2.7Z" transform="translate(-53.33 -9.94)"/><path class="cls-1" d="M68.86,24.36a.38.38,0,0,1-.37-.37V14a.38.38,0,1,1,.75,0V24A.38.38,0,0,1,68.86,24.36Z" transform="translate(-53.33 -9.94)"/><path class="cls-1" d="M70.32,24.36a.38.38,0,0,1-.37-.37V14a.38.38,0,1,1,.75,0V24A.38.38,0,0,1,70.32,24.36Z" transform="translate(-53.33 -9.94)"/><path class="cls-1" d="M76.38,23.56a2.5,2.5,0,0,1-2.55-2,.5.5,0,1,1,1-.23,1.52,1.52,0,0,0,1.69,1.26c1.26-.07,1.8-.58,1.76-1.66s-.76-1.25-1.95-1.61-2.51-.78-2.54-2.42a2.24,2.24,0,0,1,.66-1.62,3,3,0,0,1,2.2-.84h0A2.41,2.41,0,0,1,79,16a.5.5,0,0,1-1,.3,1.43,1.43,0,0,0-1.47-.86h0a2,2,0,0,0-1.48.54,1.25,1.25,0,0,0-.37.9c0,.88.67,1.12,1.84,1.49s2.58.8,2.65,2.53c0,1-.27,2.56-2.7,2.7Z" transform="translate(-53.33 -9.94)"/><path class="cls-1" d="M75.87,24.36a.38.38,0,0,1-.37-.37V14a.38.38,0,1,1,.75,0V24A.38.38,0,0,1,75.87,24.36Z" transform="translate(-53.33 -9.94)"/><path class="cls-1" d="M77.32,24.36a.38.38,0,0,1-.37-.37V14a.38.38,0,1,1,.75,0V24A.38.38,0,0,1,77.32,24.36Z" transform="translate(-53.33 -9.94)"/><path class="cls-1" d="M83.38,23.56a2.5,2.5,0,0,1-2.55-2,.5.5,0,1,1,1-.23,1.53,1.53,0,0,0,1.69,1.26c1.26-.07,1.8-.58,1.76-1.66s-.76-1.25-1.95-1.61-2.51-.78-2.54-2.42a2.24,2.24,0,0,1,.66-1.62,3,3,0,0,1,2.2-.84h0A2.41,2.41,0,0,1,86,16a.5.5,0,0,1-1,.3,1.43,1.43,0,0,0-1.47-.86h0a2,2,0,0,0-1.48.54,1.25,1.25,0,0,0-.37.9c0,.88.67,1.13,1.84,1.49s2.58.8,2.65,2.53c0,1-.27,2.56-2.7,2.7Z" transform="translate(-53.33 -9.94)"/><path class="cls-1" d="M82.87,24.36A.38.38,0,0,1,82.5,24V14a.38.38,0,1,1,.75,0V24A.38.38,0,0,1,82.87,24.36Z" transform="translate(-53.33 -9.94)"/><path class="cls-1" d="M84.33,24.36A.38.38,0,0,1,84,24V14a.38.38,0,1,1,.75,0V24A.38.38,0,0,1,84.33,24.36Z" transform="translate(-53.33 -9.94)"/><path class="cls-1" d="M87.38,28.13H58a.25.25,0,0,1,0-.5H87.38a.25.25,0,0,1,0,.5Z" transform="translate(-53.33 -9.94)"/><path class="cls-1" d="M87.38,29.13H58a.25.25,0,0,1,0-.5H87.38a.25.25,0,0,1,0,.5Z" transform="translate(-53.33 -9.94)"/><path class="cls-1" d="M87.38,31.13H58a.25.25,0,0,1,0-.5H87.38a.25.25,0,0,1,0,.5Z" transform="translate(-53.33 -9.94)"/><path class="cls-1" d="M87.38,32.13H58a.25.25,0,0,1,0-.5H87.38a.25.25,0,0,1,0,.5Z" transform="translate(-53.33 -9.94)"/><path class="cls-1" d="M87.38,33.13H58a.25.25,0,0,1,0-.5H87.38a.25.25,0,0,1,0,.5Z" transform="translate(-53.33 -9.94)"/><path class="cls-1" d="M87.38,34.13H58a.25.25,0,0,1,0-.5H87.38a.25.25,0,0,1,0,.5Z" transform="translate(-53.33 -9.94)"/><path class="cls-1" d="M87.38,36.13H58a.25.25,0,0,1,0-.5H87.38a.25.25,0,0,1,0,.5Z" transform="translate(-53.33 -9.94)"/><path class="cls-1" d="M87.38,37.13H58a.25.25,0,0,1,0-.5H87.38a.25.25,0,0,1,0,.5Z" transform="translate(-53.33 -9.94)"/><path class="cls-1" d="M87.38,38.13H58a.25.25,0,0,1,0-.5H87.38a.25.25,0,0,1,0,.5Z" transform="translate(-53.33 -9.94)"/><path class="cls-1" d="M79.37,39.13H58a.25.25,0,0,1,0-.5H79.37a.25.25,0,0,1,0,.5Z" transform="translate(-53.33 -9.94)"/><path class="cls-1" d="M71,35.13H58a.25.25,0,0,1,0-.5H71a.25.25,0,0,1,0,.5Z" transform="translate(-53.33 -9.94)"/><path class="cls-1" d="M82.81,30.13H58a.25.25,0,0,1,0-.5H82.81a.25.25,0,0,1,0,.5Z" transform="translate(-53.33 -9.94)"/><path class="cls-1" d="M87.38,40.13H58a.25.25,0,0,1,0-.5H87.38a.25.25,0,0,1,0,.5Z" transform="translate(-53.33 -9.94)"/><path class="cls-1" d="M87.38,41.14H58a.25.25,0,0,1,0-.5H87.38a.25.25,0,0,1,0,.5Z" transform="translate(-53.33 -9.94)"/><path class="cls-1" d="M87.38,43.14H58a.25.25,0,0,1,0-.5H87.38a.25.25,0,0,1,0,.5Z" transform="translate(-53.33 -9.94)"/><path class="cls-1" d="M87.38,44.14H58a.25.25,0,0,1,0-.5H87.38a.25.25,0,0,1,0,.5Z" transform="translate(-53.33 -9.94)"/><path class="cls-1" d="M87.38,45.14H58a.25.25,0,0,1,0-.5H87.38a.25.25,0,0,1,0,.5Z" transform="translate(-53.33 -9.94)"/><path class="cls-1" d="M87.38,46.14H58a.25.25,0,0,1,0-.5H87.38a.25.25,0,0,1,0,.5Z" transform="translate(-53.33 -9.94)"/><path class="cls-1" d="M87.38,48.14H58a.25.25,0,0,1,0-.5H87.38a.25.25,0,0,1,0,.5Z" transform="translate(-53.33 -9.94)"/><path class="cls-1" d="M76.74,49.14H58a.25.25,0,0,1,0-.5H76.74a.25.25,0,0,1,0,.5Z" transform="translate(-53.33 -9.94)"/><path class="cls-1" d="M71,47.14H58a.25.25,0,0,1,0-.5H71a.25.25,0,0,1,0,.5Z" transform="translate(-53.33 -9.94)"/><path class="cls-1" d="M82.81,42.14H58a.25.25,0,0,1,0-.5H82.81a.25.25,0,0,1,0,.5Z" transform="translate(-53.33 -9.94)"/></svg>