<svg id="Layer_2" data-name="Layer 2" xmlns="http://www.w3.org/2000/svg" viewBox="0 0 39.32 39.32"><defs><style>.cls-1{fill:#fff;}</style></defs><title>goals</title><path class="cls-1" d="M90.8,30.24a8.29,8.29,0,0,1-2.45.07A17.39,17.39,0,1,1,86.75,27,7.4,7.4,0,0,1,88.32,25a19.64,19.64,0,1,0,2.47,5.2Z" transform="translate(-52.34 -16.34)"/><path class="cls-1" d="M84.15,36a12.16,12.16,0,1,1-1.43-5.71l2.09-1a14.44,14.44,0,1,0,.59,1.25l-2.11,1A12.06,12.06,0,0,1,84.15,36Z" transform="translate(-52.34 -16.34)"/><path class="cls-1" d="M78.17,36a6.22,6.22,0,1,1-1-3.26l2.11-1a8.43,8.43,0,1,0,.76,1.68l-2.14,1.06A6.1,6.1,0,0,1,78.17,36Z" transform="translate(-52.34 -16.34)"/><path class="cls-1" d="M74.26,34.91a2.38,2.38,0,1,0,.21.59l-2.91,1.11Z" transform="translate(-52.34 -16.34)"/><path class="cls-1" d="M89.66,27.1a.39.39,0,0,1,.52.17l.08.16a.37.37,0,0,1-.17.5L82,32a.13.13,0,0,1-.18-.06l-.3-.6a.13.13,0,0,1,.06-.18l8.1-4m-.1-.2-8.1,4a.36.36,0,0,0-.16.48l.3.6a.36.36,0,0,0,.48.16l8.11-4a.6.6,0,0,0,.27-.8l-.08-.16a.61.61,0,0,0-.82-.27Z" transform="translate(-52.34 -16.34)"/><path class="cls-1" d="M80.73,31.26a.45.45,0,0,1,.61.2l.21.43a.46.46,0,0,1-.21.62l-4.82,2.4a.3.3,0,0,1-.4-.13l-.34-.68a.35.35,0,0,1,.16-.46l4.79-2.38m-.1-.2-4.79,2.38a.57.57,0,0,0-.26.76l.34.68a.52.52,0,0,0,.7.23l4.82-2.4a.69.69,0,0,0,.31-.92l-.21-.43a.68.68,0,0,0-.91-.31Z" transform="translate(-52.34 -16.34)"/><path class="cls-1" d="M75.53,34.35l.22.45-2.36.91,2.14-1.35m.09-.32-4.25,2.69,4.69-1.8L75.62,34Z" transform="translate(-52.34 -16.34)"/><rect class="cls-1" x="85.52" y="28.42" width="4.47" height="0.25" rx="0.06" ry="0.06" transform="translate(-55.88 25.68) rotate(-26.41)"/><path class="cls-1" d="M85.31,29.23l.16-.31c.2-.38,2-3.76,3-3.94a.43.43,0,0,1,.38.1c.64.56,1.06,1.52.65,2l0,0Zm3.08-4c-.73.36-2,2.38-2.55,3.47l3.52-1.78c.27-.36,0-1.17-.63-1.69a.21.21,0,0,0-.19,0Z" transform="translate(-52.34 -16.34)"/><path class="cls-1" d="M90.88,30.25c-1,.51-4.4,0-4.8-.09l-.34-.06L90,28c.65,0,1.16.89,1.22,1.74a.44.44,0,0,1-.15.36A.75.75,0,0,1,90.88,30.25ZM86.47,30c1.31.19,3.9.46,4.43,0a.21.21,0,0,0,.08-.18c-.05-.79-.52-1.52-1-1.53Z" transform="translate(-52.34 -16.34)"/></svg>