<svg id="Layer_1" data-name="Layer 1" xmlns="http://www.w3.org/2000/svg" viewBox="0 0 56.02 26.08"><defs><style>.cls-1{fill:#fefefe;}</style></defs><title>income</title><path class="cls-1" d="M98.12,49H45.38a1.64,1.64,0,0,1-1.63-1.63V24.6A1.64,1.64,0,0,1,45.38,23H98.12a1.64,1.64,0,0,1,1.63,1.63V47.4A1.64,1.64,0,0,1,98.12,49ZM45.38,24a.64.64,0,0,0-.63.63V47.4a.63.63,0,0,0,.63.63H98.12a.63.63,0,0,0,.63-.63V24.6a.63.63,0,0,0-.63-.63Z" transform="translate(-43.74 -22.96)"/><path class="cls-1" d="M72,45.25c-4.64,0-8.41-4.15-8.41-9.25s3.77-9.25,8.41-9.25S80.42,30.9,80.42,36,76.64,45.25,72,45.25Zm0-17.5c-4.09,0-7.41,3.7-7.41,8.25s3.33,8.25,7.41,8.25,7.42-3.7,7.42-8.25S76.09,27.75,72,27.75Z" transform="translate(-43.74 -22.96)"/><path class="cls-1" d="M75.32,38.36a2.8,2.8,0,0,0-1.91-2.58V31.71a1.74,1.74,0,0,1,.71.83.5.5,0,0,0,1-.3A2.81,2.81,0,0,0,73.4,30.6v-.88a.38.38,0,0,0-.75,0v.71a3.74,3.74,0,0,0-.51-.05,4.36,4.36,0,0,0-.57,0v-.7a.38.38,0,0,0-.75,0v.86a3.29,3.29,0,0,0-1.35.81,2.69,2.69,0,0,0-.79,1.94,2.77,2.77,0,0,0,2.15,2.6v4.48a2,2,0,0,1-1.09-1.47.5.5,0,0,0-1,.23,2.89,2.89,0,0,0,2.07,2.3v.81a.38.38,0,0,0,.75,0v-.67H72a5.84,5.84,0,0,0,.61-.07v.73a.38.38,0,0,0,.75,0v-.91A2.83,2.83,0,0,0,75.32,38.36Zm-3.18-7h0a2.84,2.84,0,0,1,.51,0v4.06l-.58-.18-.5-.16V31.42A3.55,3.55,0,0,1,72.14,31.38Zm-2.46,1.94a1.7,1.7,0,0,1,.51-1.22,2.19,2.19,0,0,1,.64-.43v3.19A1.61,1.61,0,0,1,69.68,33.31ZM72,40.62h-.41V36.19l.21.07.87.29v4A4.88,4.88,0,0,1,72,40.62Zm1.42-.33V36.9a1.67,1.67,0,0,1,.91,1.5A1.82,1.82,0,0,1,73.4,40.29Z" transform="translate(-43.74 -22.96)"/><path class="cls-1" d="M94.56,43.2a4.33,4.33,0,0,1,1.34.35,3.82,3.82,0,0,1,1.24-.31.49.49,0,0,1,.41.14c.24.32.2,1-.16,1l0,2.13A.41.41,0,0,1,97,47h-2.3a.41.41,0,0,1-.41-.41v-2s0-.25,0-.27c-.26-.16-.24-.77,0-1a.36.36,0,0,1,.26-.07m0-.08v0a.42.42,0,0,0-.31.1A1,1,0,0,0,94,44a.57.57,0,0,0,.18.38c0,.09,0,.23,0,.23v2a.49.49,0,0,0,.49.49H97a.49.49,0,0,0,.49-.49l0-2.07a.48.48,0,0,0,.26-.29,1,1,0,0,0-.12-.85.56.56,0,0,0-.47-.17,3.86,3.86,0,0,0-1.23.31,4.35,4.35,0,0,0-1.34-.35Z" transform="translate(-43.74 -22.96)"/><path class="cls-1" d="M97.46,43.47c-.25-.33-1.31.1-1.56.21-.24-.11-1.31-.59-1.56-.26a.62.62,0,0,0,.07.85.38.38,0,0,0,0,.07v2.14a.38.38,0,0,0,.38.38h2.14a.38.38,0,0,0,.38-.38V44.36C97.63,44.29,97.68,43.77,97.46,43.47ZM96.14,46v.17a.06.06,0,1,1-.12,0V46h-.2v.12a.06.06,0,1,1-.12,0V46a.5.5,0,0,1-.36-.4.08.08,0,0,1,.16,0,.35.35,0,0,0,.2.27v-.8a.47.47,0,0,1-.37-.45.46.46,0,0,1,.14-.33.57.57,0,0,1,.24-.14V44a.06.06,0,1,1,.12,0v.13H96V44a.06.06,0,1,1,.12,0v.16a.48.48,0,0,1,.29.28.08.08,0,0,1-.15,0,.32.32,0,0,0-.14-.15v.73a.52.52,0,0,1,0,1Z" transform="translate(-43.74 -22.96)"/><path class="cls-1" d="M95.93,44.27h-.1v.66l.09,0L96,45v-.73h-.1Z" transform="translate(-43.74 -22.96)"/><path class="cls-1" d="M95.49,44.61a.29.29,0,0,0,.21.28v-.58a.39.39,0,0,0-.12.08A.3.3,0,0,0,95.49,44.61Z" transform="translate(-43.74 -22.96)"/><path class="cls-1" d="M95.82,45.11v.79h.08l.12,0v-.71l-.16-.05Z" transform="translate(-43.74 -22.96)"/><path class="cls-1" d="M96.14,45.23v.61a.33.33,0,0,0,.17-.34A.3.3,0,0,0,96.14,45.23Z" transform="translate(-43.74 -22.96)"/><path class="cls-1" d="M94.55,25a4.33,4.33,0,0,1,1.34.35,3.82,3.82,0,0,1,1.24-.31.49.49,0,0,1,.41.14c.24.32.2,1-.16,1l0,2.13a.41.41,0,0,1-.41.41h-2.3a.41.41,0,0,1-.41-.41v-2s0-.25,0-.27c-.26-.16-.24-.77,0-1a.36.36,0,0,1,.26-.07m0-.08v0a.42.42,0,0,0-.31.1,1,1,0,0,0-.21.75.57.57,0,0,0,.18.38c0,.09,0,.23,0,.23v2a.49.49,0,0,0,.49.49H97a.49.49,0,0,0,.49-.49l0-2.07a.48.48,0,0,0,.26-.29,1,1,0,0,0-.12-.85.56.56,0,0,0-.47-.17,3.86,3.86,0,0,0-1.23.31A4.35,4.35,0,0,0,94.55,25Z" transform="translate(-43.74 -22.96)"/><path class="cls-1" d="M97.44,25.32c-.25-.33-1.31.1-1.56.21-.24-.11-1.31-.59-1.56-.26a.62.62,0,0,0,.07.85.38.38,0,0,0,0,.07v2.14a.38.38,0,0,0,.38.38H96.9a.38.38,0,0,0,.38-.38V26.2C97.61,26.13,97.67,25.61,97.44,25.32Zm-1.32,2.54V28A.06.06,0,0,1,96,28v-.14h-.2V28a.06.06,0,1,1-.12,0v-.15a.5.5,0,0,1-.36-.4.08.08,0,0,1,.16,0,.35.35,0,0,0,.2.27v-.8a.47.47,0,0,1-.37-.45.46.46,0,0,1,.14-.33.57.57,0,0,1,.24-.14v-.16a.06.06,0,1,1,.12,0V26H96v-.13a.06.06,0,0,1,.12,0V26a.48.48,0,0,1,.29.28.08.08,0,0,1-.15,0,.32.32,0,0,0-.14-.15v.73a.52.52,0,0,1,0,1Z" transform="translate(-43.74 -22.96)"/><path class="cls-1" d="M95.91,26.11h-.1v.66l.09,0,.11,0v-.73h-.1Z" transform="translate(-43.74 -22.96)"/><path class="cls-1" d="M95.47,26.46a.29.29,0,0,0,.21.28v-.58a.39.39,0,0,0-.12.08A.3.3,0,0,0,95.47,26.46Z" transform="translate(-43.74 -22.96)"/><path class="cls-1" d="M95.81,26.95v.79h.08l.12,0V27L95.85,27Z" transform="translate(-43.74 -22.96)"/><path class="cls-1" d="M96.13,27.07v.61a.33.33,0,0,0,.17-.34A.3.3,0,0,0,96.13,27.07Z" transform="translate(-43.74 -22.96)"/><path class="cls-1" d="M46.3,43.2a4.33,4.33,0,0,1,1.34.35,3.82,3.82,0,0,1,1.24-.31.49.49,0,0,1,.41.14c.24.32.2,1-.16,1l0,2.13a.41.41,0,0,1-.41.41h-2.3a.41.41,0,0,1-.41-.41v-2s0-.25,0-.27c-.26-.16-.24-.77,0-1a.36.36,0,0,1,.26-.07m0-.08v0a.42.42,0,0,0-.31.1,1,1,0,0,0-.21.75.57.57,0,0,0,.18.38c0,.09,0,.23,0,.23v2a.49.49,0,0,0,.49.49h2.3a.49.49,0,0,0,.49-.49l0-2.07a.48.48,0,0,0,.26-.29,1,1,0,0,0-.12-.85.56.56,0,0,0-.47-.17,3.86,3.86,0,0,0-1.23.31,4.35,4.35,0,0,0-1.34-.35Z" transform="translate(-43.74 -22.96)"/><path class="cls-1" d="M49.2,43.47c-.25-.33-1.31.1-1.56.21-.24-.11-1.31-.59-1.56-.26a.62.62,0,0,0,.07.85.38.38,0,0,0,0,.07v2.14a.38.38,0,0,0,.38.38h2.14a.38.38,0,0,0,.38-.38V44.36C49.37,44.29,49.43,43.77,49.2,43.47ZM47.88,46v.17a.06.06,0,0,1-.12,0V46h-.2v.12a.06.06,0,0,1-.12,0V46a.5.5,0,0,1-.36-.4.08.08,0,0,1,.16,0,.35.35,0,0,0,.2.27v-.8a.47.47,0,0,1-.37-.45.46.46,0,0,1,.14-.33.57.57,0,0,1,.24-.14V44a.06.06,0,0,1,.12,0v.13h.2V44a.06.06,0,1,1,.12,0v.16a.48.48,0,0,1,.29.28.08.08,0,0,1-.15,0,.32.32,0,0,0-.14-.15v.73a.52.52,0,0,1,0,1Z" transform="translate(-43.74 -22.96)"/><path class="cls-1" d="M47.67,44.27h-.1v.66l.09,0,.11,0v-.73h-.1Z" transform="translate(-43.74 -22.96)"/><path class="cls-1" d="M47.23,44.61a.29.29,0,0,0,.21.28v-.58a.39.39,0,0,0-.12.08A.3.3,0,0,0,47.23,44.61Z" transform="translate(-43.74 -22.96)"/><path class="cls-1" d="M47.56,45.11v.79h.08l.12,0v-.71l-.16-.05Z" transform="translate(-43.74 -22.96)"/><path class="cls-1" d="M47.88,45.23v.61a.33.33,0,0,0,.17-.34A.3.3,0,0,0,47.88,45.23Z" transform="translate(-43.74 -22.96)"/><path class="cls-1" d="M46.29,25a4.33,4.33,0,0,1,1.34.35,3.82,3.82,0,0,1,1.24-.31.49.49,0,0,1,.41.14c.24.32.2,1-.16,1l0,2.13a.41.41,0,0,1-.41.41h-2.3a.41.41,0,0,1-.41-.41v-2s0-.25,0-.27c-.26-.16-.24-.77,0-1a.36.36,0,0,1,.26-.07m0-.08v0a.42.42,0,0,0-.31.1,1,1,0,0,0-.21.75.57.57,0,0,0,.18.38c0,.09,0,.23,0,.23v2a.49.49,0,0,0,.49.49h2.3a.49.49,0,0,0,.49-.49l0-2.07a.48.48,0,0,0,.26-.29,1,1,0,0,0-.12-.85.56.56,0,0,0-.47-.17,3.86,3.86,0,0,0-1.23.31A4.35,4.35,0,0,0,46.29,25Z" transform="translate(-43.74 -22.96)"/><path class="cls-1" d="M49.18,25.32c-.25-.33-1.31.1-1.56.21-.24-.11-1.31-.59-1.56-.26a.62.62,0,0,0,.07.85.38.38,0,0,0,0,.07v2.14a.38.38,0,0,0,.38.38h2.14a.38.38,0,0,0,.38-.38V26.2C49.35,26.13,49.41,25.61,49.18,25.32Zm-1.32,2.54V28a.06.06,0,0,1-.12,0v-.14h-.2V28a.06.06,0,0,1-.12,0v-.15a.5.5,0,0,1-.36-.4.08.08,0,0,1,.16,0,.35.35,0,0,0,.2.27v-.8a.47.47,0,0,1-.37-.45.46.46,0,0,1,.14-.33.57.57,0,0,1,.24-.14v-.16a.06.06,0,0,1,.12,0V26h.2v-.13a.06.06,0,0,1,.12,0V26a.48.48,0,0,1,.29.28.08.08,0,0,1-.15,0,.32.32,0,0,0-.14-.15v.73a.52.52,0,0,1,0,1Z" transform="translate(-43.74 -22.96)"/><path class="cls-1" d="M47.65,26.11h-.1v.66l.09,0,.11,0v-.73h-.1Z" transform="translate(-43.74 -22.96)"/><path class="cls-1" d="M47.22,26.46a.29.29,0,0,0,.21.28v-.58a.39.39,0,0,0-.12.08A.3.3,0,0,0,47.22,26.46Z" transform="translate(-43.74 -22.96)"/><path class="cls-1" d="M47.55,26.95v.79h.08l.12,0V27L47.59,27Z" transform="translate(-43.74 -22.96)"/><path class="cls-1" d="M47.87,27.07v.61a.33.33,0,0,0,.17-.34A.3.3,0,0,0,47.87,27.07Z" transform="translate(-43.74 -22.96)"/></svg>