<svg id="Layer_2" data-name="Layer 2" xmlns="http://www.w3.org/2000/svg" viewBox="0 0 7.59 7.86"><defs><style>.cls-1{fill:#fff;}</style></defs><title>logo</title><path class="cls-1" d="M66.63,32.26H62.1a1,1,0,0,1-1-1V26.76a.14.14,0,0,0,0-.12.89.89,0,0,1-.4-.62A1.75,1.75,0,0,1,61,24.7c.54-.7,2.32,0,3.34.41a.28.28,0,0,0,.22,0c1-.41,2.79-1,3.33-.31a1.67,1.67,0,0,1,.28,1.36,1,1,0,0,1-.55.72.1.1,0,0,0-.05.1v4.3A1,1,0,0,1,66.63,32.26Zm-4.78-7.53a.66.66,0,0,0-.54.18A1.4,1.4,0,0,0,61,26a.57.57,0,0,0,.26.41.48.48,0,0,1,.19.39v4.53a.63.63,0,0,0,.63.63h4.53a.63.63,0,0,0,.63-.63V27a.44.44,0,0,1,.25-.4.71.71,0,0,0,.36-.5A1.33,1.33,0,0,0,67.66,25c-.28-.37-1.4-.21-2.93.41a.62.62,0,0,1-.49,0A6.69,6.69,0,0,0,61.85,24.73Z" transform="translate(-60.66 -24.4)"/><path class="cls-1" d="M65.71,29.2a1,1,0,0,0-.7-.94V26.71a.67.67,0,0,1,.29.33.17.17,0,0,0,.32-.1,1,1,0,0,0-.61-.6V26a.13.13,0,0,0-.25,0v.28l-.2,0h0l-.22,0V26a.13.13,0,0,0-.25,0v.34a1.2,1.2,0,0,0-.5.29,1,1,0,0,0-.29.71,1,1,0,0,0,.79,1V30a.75.75,0,0,1-.43-.56.17.17,0,0,0-.33.08,1.06,1.06,0,0,0,.76.84v.31a.13.13,0,1,0,.25,0v-.26h.18l.24,0v.29a.13.13,0,1,0,.25,0v-.35A1,1,0,0,0,65.71,29.2Zm-1.16-2.6h0l.2,0v1.54l-.23-.07L64.32,28v-1.4Zm-.93.73a.64.64,0,0,1,.19-.46.83.83,0,0,1,.26-.17v1.23A.62.62,0,0,1,63.62,27.33ZM64.49,30h-.17V28.37l.09,0,.33.11V30Zm.51-.12v-1.3a.64.64,0,0,1,.37.58A.69.69,0,0,1,65,29.93Z" transform="translate(-60.66 -24.4)"/></svg>