<svg id="Layer_2" data-name="Layer 2" xmlns="http://www.w3.org/2000/svg" viewBox="0 0 44.86 28.07"><defs><style>.cls-1{fill:#fff;}</style></defs><title>question</title><path class="cls-1" d="M56.7,29.54a3.92,3.92,0,0,1-1.26,2.22,3.52,3.52,0,0,1-2.27.77A3.62,3.62,0,0,1,50,30.66l-.2-.45a3,3,0,0,1-.14-.56,18,18,0,0,1-.1-2.41,17.93,17.93,0,0,1,.1-2.42,3,3,0,0,1,.34-1,3.55,3.55,0,0,1,1.17-1.28,3.63,3.63,0,0,1,4.36.31A4,4,0,0,1,56.7,25H55.08A2.3,2.3,0,0,0,54.41,24a2,2,0,0,0-1.24-.44,2.05,2.05,0,0,0-.93.22,1.94,1.94,0,0,0-.64.54,1.74,1.74,0,0,0-.39.86,12.66,12.66,0,0,0-.11,2.09,12.38,12.38,0,0,0,.11,2.08,1.76,1.76,0,0,0,.39.88,1.8,1.8,0,0,0,.64.52,1.75,1.75,0,0,0,.93.24,2.05,2.05,0,0,0,1.92-1.42Z" transform="translate(-49.57 -21.97)"/><path class="cls-1" d="M57.54,28.73a6.65,6.65,0,0,1,.19-1.8,2.62,2.62,0,0,1,.59-1,2.72,2.72,0,0,1,.83-.66A3,3,0,0,1,60.5,25a3,3,0,0,1,1.37.29,2.6,2.6,0,0,1,.8.66,2.36,2.36,0,0,1,.61,1,7.22,7.22,0,0,1,.17,1.8,7,7,0,0,1-.17,1.78,2.55,2.55,0,0,1-.61,1.06,2.26,2.26,0,0,1-.34.32,1.55,1.55,0,0,1-.46.31,2.8,2.8,0,0,1-1.37.32,2.94,2.94,0,0,1-2.17-.95,2.87,2.87,0,0,1-.59-1.06A6.52,6.52,0,0,1,57.54,28.73Zm4.47,0a6.85,6.85,0,0,0-.07-1.16,1.38,1.38,0,0,0-.28-.61,1.06,1.06,0,0,0-.47-.39,1.51,1.51,0,0,0-.69-.15,1.54,1.54,0,0,0-.68.15,1.28,1.28,0,0,0-.48.39,1.76,1.76,0,0,0-.27.61A5.72,5.72,0,0,0,59,28.73a5.54,5.54,0,0,0,.08,1.13,1.91,1.91,0,0,0,.27.64,1.74,1.74,0,0,0,.48.38,1.48,1.48,0,0,0,.68.16,1.45,1.45,0,0,0,.69-.16,1.35,1.35,0,0,0,.47-.38,1.49,1.49,0,0,0,.28-.64A6.41,6.41,0,0,0,62,28.75Z" transform="translate(-49.57 -21.97)"/><path class="cls-1" d="M65.14,25h1.44v.78h0A2.4,2.4,0,0,1,68.54,25a2.76,2.76,0,0,1,1.24.26,3.7,3.7,0,0,1,.85.71A2.91,2.91,0,0,1,73,25a2.54,2.54,0,0,1,1.68.65,2.49,2.49,0,0,1,.78,1.92v4.92H74V28a1.59,1.59,0,0,0-.41-1.18,1.44,1.44,0,0,0-1.07-.41,1.46,1.46,0,0,0-1.07.41A1.55,1.55,0,0,0,71,28v4.41H69.56V28a1.59,1.59,0,0,0-.41-1.18,1.47,1.47,0,0,0-1.07-.41,1.44,1.44,0,0,0-1.07.41A1.54,1.54,0,0,0,66.58,28v4.41H65.14Z" transform="translate(-49.57 -21.97)"/><path class="cls-1" d="M77.67,22.05h1.44v1.48H77.67Zm0,3h1.44v7.4H77.67Z" transform="translate(-49.57 -21.97)"/><path class="cls-1" d="M81.13,25h1.44v.78h0A2.28,2.28,0,0,1,84.45,25a2.41,2.41,0,0,1,1.63.65,2.55,2.55,0,0,1,.76,1.92v4.92H85.41V28a1.62,1.62,0,0,0-.4-1.18,1.34,1.34,0,0,0-1-.41,1.36,1.36,0,0,0-1,.41A1.61,1.61,0,0,0,82.57,28v4.41H81.13Z" transform="translate(-49.57 -21.97)"/><path class="cls-1" d="M93,31.67a2.4,2.4,0,0,1-1.85.86A2.21,2.21,0,0,1,90,32.22a2.59,2.59,0,0,1-.74-.6,2.3,2.3,0,0,1-.41-.89,9.66,9.66,0,0,1-.13-2,10,10,0,0,1,.13-2,2.23,2.23,0,0,1,.41-.88,2.35,2.35,0,0,1,.74-.62,2.45,2.45,0,0,1,3,.6V25h1.44v7.22a3,3,0,0,1-3.11,3.26,3.24,3.24,0,0,1-2.48-1.24L90,33.36a2.7,2.7,0,0,0,.64.45,1.64,1.64,0,0,0,.76.22,1.66,1.66,0,0,0,1.19-.42A1.62,1.62,0,0,0,93,32.43Zm-2.85-2.92a8.16,8.16,0,0,0,.06,1.17,1.12,1.12,0,0,0,.23.56,1.31,1.31,0,0,0,.44.36,1.34,1.34,0,0,0,1.41,0,1.35,1.35,0,0,0,.43-.36,1.22,1.22,0,0,0,.24-.56,11,11,0,0,0,0-1.17,11.61,11.61,0,0,0,0-1.2,1.12,1.12,0,0,0-.24-.54,1.7,1.7,0,0,0-.43-.39,1.48,1.48,0,0,0-1.41,0,1.63,1.63,0,0,0-.44.39,1,1,0,0,0-.23.54A8.65,8.65,0,0,0,90.15,28.75Z" transform="translate(-49.57 -21.97)"/><path class="cls-1" d="M58,47.43a4.33,4.33,0,0,0,2.86,1q2,0,2-1.45,0-1.16-1.31-1.4l-1.33-.19a3.25,3.25,0,0,1-2-1,2.81,2.81,0,0,1-.7-1.93,2.89,2.89,0,0,1,.88-2.2,3.35,3.35,0,0,1,2.41-.84,5.54,5.54,0,0,1,3.26,1.07l-.85,1.29a4.51,4.51,0,0,0-2.49-.8,1.86,1.86,0,0,0-1.17.36,1.37,1.37,0,0,0-.5,1.13,1.16,1.16,0,0,0,.34.81,1.91,1.91,0,0,0,1.08.51l1.13.16a3.1,3.1,0,0,1,2.09,1A3,3,0,0,1,64.38,47q-.07,3-3.53,3A5.61,5.61,0,0,1,57,48.62Z" transform="translate(-49.57 -21.97)"/><path class="cls-1" d="M65.78,46.24a6.65,6.65,0,0,1,.19-1.8,2.62,2.62,0,0,1,.59-1,2.72,2.72,0,0,1,.83-.66,3,3,0,0,1,1.35-.29,3,3,0,0,1,1.37.29,2.6,2.6,0,0,1,.8.66,2.36,2.36,0,0,1,.61,1,7.22,7.22,0,0,1,.17,1.8A7,7,0,0,1,71.51,48a2.55,2.55,0,0,1-.61,1.06,2.26,2.26,0,0,1-.34.32,1.55,1.55,0,0,1-.46.31,2.8,2.8,0,0,1-1.37.32,2.94,2.94,0,0,1-2.17-.95A2.87,2.87,0,0,1,66,48,6.52,6.52,0,0,1,65.78,46.24Zm4.47,0a6.85,6.85,0,0,0-.07-1.16,1.38,1.38,0,0,0-.28-.61,1.06,1.06,0,0,0-.47-.39,1.51,1.51,0,0,0-.69-.15,1.54,1.54,0,0,0-.68.15,1.28,1.28,0,0,0-.48.39,1.76,1.76,0,0,0-.27.61,5.72,5.72,0,0,0-.08,1.14,5.54,5.54,0,0,0,.08,1.13,1.91,1.91,0,0,0,.27.64,1.74,1.74,0,0,0,.48.38,1.48,1.48,0,0,0,.68.16,1.45,1.45,0,0,0,.69-.16,1.35,1.35,0,0,0,.47-.38,1.49,1.49,0,0,0,.28-.64A6.41,6.41,0,0,0,70.24,46.26Z" transform="translate(-49.57 -21.97)"/><path class="cls-1" d="M73.07,46.24a6.65,6.65,0,0,1,.19-1.8,2.62,2.62,0,0,1,.59-1,2.72,2.72,0,0,1,.83-.66A3,3,0,0,1,76,42.46a3,3,0,0,1,1.37.29,2.6,2.6,0,0,1,.8.66,2.36,2.36,0,0,1,.61,1,7.22,7.22,0,0,1,.17,1.8A7,7,0,0,1,78.8,48a2.55,2.55,0,0,1-.61,1.06,2.26,2.26,0,0,1-.34.32,1.55,1.55,0,0,1-.46.31A2.8,2.8,0,0,1,76,50a2.94,2.94,0,0,1-2.17-.95A2.87,2.87,0,0,1,73.26,48,6.52,6.52,0,0,1,73.07,46.24Zm4.47,0a6.85,6.85,0,0,0-.07-1.16,1.38,1.38,0,0,0-.28-.61,1.06,1.06,0,0,0-.47-.39,1.51,1.51,0,0,0-.69-.15,1.54,1.54,0,0,0-.68.15,1.28,1.28,0,0,0-.48.39,1.76,1.76,0,0,0-.27.61,5.72,5.72,0,0,0-.08,1.14,5.54,5.54,0,0,0,.08,1.13,1.91,1.91,0,0,0,.27.64,1.74,1.74,0,0,0,.48.38,1.48,1.48,0,0,0,.68.16,1.45,1.45,0,0,0,.69-.16,1.35,1.35,0,0,0,.47-.38,1.49,1.49,0,0,0,.28-.64A6.41,6.41,0,0,0,77.54,46.26Z" transform="translate(-49.57 -21.97)"/><path class="cls-1" d="M80.72,42.55h1.44v.78h0a2.28,2.28,0,0,1,1.86-.88,2.41,2.41,0,0,1,1.63.65A2.55,2.55,0,0,1,86.44,45v4.92H85V45.54a1.62,1.62,0,0,0-.4-1.18,1.34,1.34,0,0,0-1-.41,1.36,1.36,0,0,0-1,.41,1.61,1.61,0,0,0-.41,1.18v4.41H80.72Z" transform="translate(-49.57 -21.97)"/></svg>